<svg width="24" height="24" viewBox="0 0 24 24" fill="none" xmlns="http://www.w3.org/2000/svg">
<path fill-rule="evenodd" clip-rule="evenodd" d="M19.7274 4.30651C19.337 3.9156 18.7038 3.91538 18.3132 4.30602L12.0203 10.5986L5.72737 4.30602C5.33671 3.91538 4.70355 3.9156 4.31316 4.30651C3.92277 4.69741 3.92299 5.33098 4.31364 5.72162L10.6056 12.0132L4.31364 18.3048L4.23042 18.399C3.92526 18.7914 3.9528 19.359 4.31316 19.7199C4.70355 20.1108 5.33671 20.111 5.72737 19.7203L12.0203 13.4278L18.3132 19.7203C18.7038 20.111 19.337 20.1108 19.7274 19.7199C20.1178 19.329 20.1175 18.6954 19.7269 18.3048L13.435 12.0132L19.7269 5.72162L19.8101 5.62738C20.1153 5.23494 20.0877 4.66734 19.7274 4.30651Z" fill="#979797"/>
<mask id="mask0_0_4705" style="mask-type:luminance" maskUnits="userSpaceOnUse" x="4" y="4" width="17" height="17">
<path fill-rule="evenodd" clip-rule="evenodd" d="M19.7274 4.30651C19.337 3.9156 18.7038 3.91538 18.3132 4.30602L12.0203 10.5986L5.72737 4.30602C5.33671 3.91538 4.70355 3.9156 4.31316 4.30651C3.92277 4.69741 3.92299 5.33098 4.31364 5.72162L10.6056 12.0132L4.31364 18.3048L4.23042 18.399C3.92526 18.7914 3.9528 19.359 4.31316 19.7199C4.70355 20.1108 5.33671 20.111 5.72737 19.7203L12.0203 13.4278L18.3132 19.7203C18.7038 20.111 19.337 20.1108 19.7274 19.7199C20.1178 19.329 20.1175 18.6954 19.7269 18.3048L13.435 12.0132L19.7269 5.72162L19.8101 5.62738C20.1153 5.23494 20.0877 4.66734 19.7274 4.30651Z" fill="white"/>
</mask>
<g mask="url(#mask0_0_4705)">
<rect width="24" height="24" fill="white"/>
</g>
</svg>
