<svg width="12" height="12" viewBox="0 0 12 12" fill="none" xmlns="http://www.w3.org/2000/svg">
<path d="M0.521484 7.04346V10.7609C0.521484 11.4444 1.08142 12 1.76912 12H10.7521C11.4403 12 11.9997 11.4443 11.9997 10.7609V7.04346H0.521484V7.04346Z" fill="black"/>
<path d="M5.94525 1.17383L4.04395 1.61599L5.63682 3.91296L7.69612 3.45387L5.94525 1.17383Z" fill="black"/>
<path d="M3.54885 1.6958L1.56543 2.16966L3.09098 4.43493L5.08717 3.97741L3.54885 1.6958Z" fill="black"/>
<path d="M11.9919 2.15917L11.5679 0.56183C11.4702 0.173374 11.0695 -0.0710611 10.6744 0.018497L9 0.413379L10.5887 2.73913L11.806 2.46401C11.8723 2.44916 11.9291 2.40808 11.964 2.3507C11.9989 2.29331 12.0089 2.22449 11.9919 2.15917Z" fill="black"/>
<path d="M8.42816 0.521973L6.3916 0.992575L8.14431 3.2611L10.0438 2.84041L8.42816 0.521973Z" fill="black"/>
<path d="M3.01129 4.56543L2.21777 6.52195H4.16339L4.9569 4.56543H3.01129Z" fill="black"/>
<path d="M5.48882 4.56543L4.69531 6.52195H6.64091L7.43444 4.56543H5.48882Z" fill="black"/>
<path d="M11.7565 4.56543H10.5601L9.78223 6.52195H11.9996V4.80998C11.9996 4.6745 11.8912 4.56543 11.7565 4.56543Z" fill="black"/>
<path d="M7.96736 4.56543L7.17383 6.52195H9.11896L9.91296 4.56543H7.96736Z" fill="black"/>
<path d="M0.967814 2.34766L0.570186 2.44394C0.376507 2.48884 0.21258 2.60907 0.108662 2.78171C0.00474378 2.95484 -0.0259925 3.1584 0.0223074 3.35546L0.47457 5.18348V6.52157H1.62693L2.35923 4.65014L2.47826 4.62271L0.967814 2.34766Z" fill="black"/>
</svg>
