<svg width="17" height="16" viewBox="0 0 17 16" fill="none" xmlns="http://www.w3.org/2000/svg">
<path d="M5.19071 1.92188C4.28056 1.92188 3.44446 2.30293 2.8362 2.99494C2.21891 3.69739 1.87891 4.6684 1.87891 5.72922C1.87891 6.8485 2.27544 7.84953 3.16454 8.97494C4.02387 10.0628 5.30206 11.2055 6.78201 12.5286L6.78476 12.531C7.30215 12.9936 7.88866 13.518 8.49908 14.0779C9.11317 13.5169 9.7006 12.9917 10.219 12.5284C11.6989 11.2052 12.9769 10.0628 13.8363 8.97494C14.7252 7.84953 15.1218 6.8485 15.1218 5.72922C15.1218 4.6684 14.7818 3.69739 14.1645 2.99494C13.5563 2.30293 12.7201 1.92188 11.8101 1.92188C11.1434 1.92188 10.5312 2.14422 9.99071 2.58266C9.50903 2.97357 9.17348 3.46772 8.97676 3.81348C8.8756 3.99128 8.69753 4.09741 8.50034 4.09741C8.30316 4.09741 8.12509 3.99128 8.02393 3.81348C7.82732 3.46772 7.49178 2.97357 7.00998 2.58266C6.46947 2.14422 5.85733 1.92188 5.19071 1.92188Z" stroke="white" stroke-width="2"/>
</svg>
