<svg width="16" height="16" viewBox="0 0 16 16" fill="none" xmlns="http://www.w3.org/2000/svg">
<path fill-rule="evenodd" clip-rule="evenodd" d="M12.3225 10.5855L15.6143 13.8771C15.851 14.1138 15.9693 14.4018 15.9692 14.7407C15.9692 15.0734 15.8476 15.3613 15.6046 15.6044C15.3617 15.8475 15.0736 15.969 14.7409 15.969C14.3952 15.969 14.1076 15.8474 13.8773 15.6044L10.5856 12.3223C9.44037 13.1155 8.16397 13.5124 6.75627 13.5124C5.84145 13.5124 4.96655 13.3349 4.13156 12.9798C3.29667 12.6246 2.57681 12.1449 1.9722 11.5401C1.36753 10.9355 0.887664 10.2159 0.532639 9.38097C0.177546 8.54585 0 7.67116 0 6.75634C0 5.84145 0.177546 4.96655 0.532639 4.13156C0.887697 3.29667 1.36753 2.57681 1.9722 1.9722C2.57681 1.3676 3.29654 0.887697 4.13156 0.532672C4.96645 0.177546 5.84145 0 6.75627 0C7.67116 0 8.54608 0.177546 9.38121 0.532672C10.2161 0.887697 10.9357 1.3676 11.5403 1.9722C12.1449 2.57681 12.6248 3.29654 12.9798 4.13156C13.335 4.96645 13.5126 5.84145 13.5126 6.75634C13.5126 8.16373 13.1158 9.44034 12.3225 10.5855ZM6.75627 11.0556C7.94 11.0556 8.9524 10.6349 9.79371 9.79345C10.635 8.95213 11.0558 7.93987 11.0558 6.75613C11.0558 5.57261 10.6352 4.56003 9.79371 3.71882C8.95227 2.87758 7.93987 2.45677 6.75627 2.45677C5.57274 2.45677 4.56017 2.87741 3.71896 3.71882C2.87768 4.56003 2.45691 5.57261 2.45691 6.75613C2.45691 7.93987 2.87758 8.95213 3.71896 9.79345C4.56034 10.6348 5.57274 11.0556 6.75627 11.0556Z" fill="black"/>
</svg>
